<?xml version="1.0" encoding="UTF-8"?>
<svg width="14px" height="14px" viewBox="0 0 14 14" version="1.1" xmlns="http://www.w3.org/2000/svg" xmlns:xlink="http://www.w3.org/1999/xlink">
    <!-- Generator: Sketch 63 (92445) - https://sketch.com -->
    <title>icon_phone</title>
    <desc>Created with Sketch.</desc>
    <g id="page" stroke="none" stroke-width="1" fill="none" fill-rule="evenodd">
        <g id="index_3" transform="translate(-375.000000, -4130.000000)" fill="#5E7DBC" fill-rule="nonzero">
            <g id="CTA" transform="translate(0.000000, 3856.000000)">
                <g id="联系方式" transform="translate(375.000000, 60.000000)">
                    <g id="icon_phone" transform="translate(0.000000, 214.000000)">
                        <path d="M3.93702072,0.982070721 C2.33027254,-1.02133954 1.25753185,0.51901835 0.378546086,1.39787285 C-0.637485848,2.41375305 0.326563057,6.19377241 4.06461543,9.93599157 C7.8026678,13.6734857 11.5879775,14.6373906 12.6040094,13.6215104 C13.4829952,12.7426559 15.0188574,11.6700755 13.0198736,10.0635672 C11.0208899,8.457059 10.458528,9.24613804 9.55118787,10.1533427 C8.91794006,10.7864959 7.31119189,9.46348915 5.92655302,8.07905706 C4.53718842,6.68517493 3.21398404,5.08339172 3.84723185,4.45023848 C4.754572,3.54303384 5.54376889,2.98548098 3.93702072,0.982070721 Z" id="Shape"></path>
                    </g>
                </g>
            </g>
        </g>
    </g>
</svg>